<svg width="32" height="32" viewBox="0 0 32 32" fill="none" xmlns="http://www.w3.org/2000/svg">
    <path
        d="M17.2927 25.7075C17.1997 25.6146 17.126 25.5043 17.0756 25.3829C17.0253 25.2615 16.9994 25.1314 16.9994 25C16.9994 24.8686 17.0253 24.7385 17.0756 24.6171C17.126 24.4957 17.1997 24.3854 17.2927 24.2925L24.5864 17H5.00019C4.73497 17 4.48062 16.8947 4.29308 16.7071C4.10555 16.5196 4.00019 16.2652 4.00019 16C4.00019 15.7348 4.10555 15.4804 4.29308 15.2929C4.48062 15.1054 4.73497 15 5.00019 15L24.5864 15L17.2927 7.70751C17.105 7.51987 16.9996 7.26537 16.9996 7.00001C16.9996 6.73464 17.105 6.48015 17.2927 6.29251C17.4803 6.10487 17.7348 5.99945 18.0002 5.99945C18.2656 5.99945 18.5201 6.10487 18.7077 6.29251L27.7077 15.2925C27.8007 15.3854 27.8744 15.4957 27.9247 15.6171C27.9751 15.7385 28.001 15.8686 28.001 16C28.001 16.1314 27.9751 16.2615 27.9247 16.3829C27.8744 16.5043 27.8007 16.6146 27.7077 16.7075L18.7077 25.7075C18.6148 25.8005 18.5045 25.8742 18.3831 25.9246C18.2617 25.9749 18.1316 26.0008 18.0002 26.0008C17.8688 26.0008 17.7386 25.9749 17.6172 25.9246C17.4959 25.8742 17.3856 25.8005 17.2927 25.7075Z"
        fill="black" />
</svg>
    