<svg width="24" height="24" viewBox="0 0 24 24" fill="none" xmlns="http://www.w3.org/2000/svg">
<path d="M7.36088 16.596C6.78688 17.0767 6.18855 17.292 5.56588 17.242C4.94322 17.192 4.40655 16.9787 3.95588 16.602C3.50522 16.2253 3.20088 15.7313 3.04288 15.12C2.88622 14.5093 2.99822 13.8873 3.37888 13.254L5.33088 10.019C4.92688 9.717 4.60388 9.332 4.36188 8.864C4.11988 8.396 3.99922 7.89 3.99988 7.346C3.99988 6.41267 4.32422 5.62167 4.97288 4.973C5.62155 4.32433 6.41255 4 7.34588 4C8.27922 4 9.07022 4.32433 9.71888 4.973C10.3675 5.62167 10.6919 6.41267 10.6919 7.346C10.6919 8.27933 10.3679 9.07067 9.71988 9.72C9.07188 10.3693 8.28088 10.6937 7.34688 10.693C7.14555 10.693 6.95088 10.6783 6.76288 10.649C6.57488 10.6197 6.39488 10.569 6.22288 10.497L4.23988 13.785C4.00522 14.175 3.93388 14.5577 4.02588 14.933C4.11788 15.3083 4.30455 15.6127 4.58588 15.846C4.86722 16.0793 5.20255 16.2127 5.59188 16.246C5.98122 16.2793 6.35622 16.1463 6.71688 15.847L16.6589 7.399C17.2175 6.91833 17.8035 6.70067 18.4169 6.746C19.0295 6.79133 19.5695 7.00233 20.0369 7.379C20.5035 7.755 20.8195 8.249 20.9849 8.861C21.1502 9.473 21.0359 10.1017 20.6419 10.747L18.6689 14C19.0729 14.3027 19.3959 14.6833 19.6379 15.142C19.8799 15.6007 20.0005 16.1047 19.9999 16.654C19.9999 17.5873 19.6709 18.3783 19.0129 19.027C18.3549 19.6757 17.5639 20 16.6399 20C15.7159 20 14.9292 19.6723 14.2799 19.017C13.6305 18.3617 13.3065 17.574 13.3079 16.654C13.3092 15.734 13.6349 14.9463 14.2849 14.291C14.9349 13.6357 15.7182 13.308 16.6349 13.308C16.8375 13.308 17.0349 13.326 17.2269 13.362C17.4189 13.398 17.6009 13.4517 17.7729 13.523L19.7619 10.216C19.9959 9.826 20.0699 9.44367 19.9839 9.069C19.8972 8.695 19.7139 8.39033 19.4339 8.155C19.1539 7.91967 18.8189 7.783 18.4289 7.745C18.0389 7.707 17.6639 7.84333 17.3039 8.154L7.36088 16.596ZM16.6329 19C17.2835 19 17.8409 18.772 18.3049 18.316C18.7682 17.8607 18.9999 17.3067 18.9999 16.654C18.9999 16.0013 18.7682 15.447 18.3049 14.991C17.8415 14.535 17.2842 14.3073 16.6329 14.308C15.9815 14.3087 15.4312 14.5363 14.9819 14.991C14.5325 15.4457 14.3079 16 14.3079 16.654C14.3079 17.308 14.5325 17.862 14.9819 18.316C15.4312 18.77 15.9822 18.998 16.6329 19ZM7.34688 9.692C7.99955 9.692 8.55388 9.46433 9.00988 9.009C9.46522 8.553 9.69288 7.99867 9.69288 7.346C9.69288 6.69333 9.46522 6.13933 9.00988 5.684C8.55455 5.22867 7.99988 5.00067 7.34588 5C6.69188 4.99933 6.13788 5.22733 5.68388 5.684C5.22988 6.14067 5.00188 6.69467 4.99988 7.346C4.99788 7.99733 5.22588 8.55167 5.68388 9.009C6.14188 9.46633 6.69688 9.694 7.34688 9.692Z" fill="defaultColor"/>
</svg>
