<svg width="24" height="20" viewBox="0 0 24 20" fill="none" xmlns="http://www.w3.org/2000/svg">
<g clip-path="url(#clip0_143_54)">
<path d="M9.41527 10.7995C9.50255 9.24273 10.2648 7.87126 11.415 6.89898C12.5428 5.94404 14.0608 5.36035 15.7171 5.36035C17.3718 5.36035 18.8899 5.94404 20.0186 6.89898C21.1678 7.87116 21.9301 9.24273 22.0183 10.7979C22.1055 12.3974 21.4625 13.8834 20.3347 14.9848C19.1847 16.1052 17.5488 16.8083 15.7171 16.8083C13.8855 16.8083 12.2464 16.1052 11.0971 14.9848C9.96848 13.8833 9.32714 12.3973 9.41527 10.7995Z" fill="white"/>
<path d="M12.4846 10.9384C12.5293 10.1396 12.9205 9.43583 13.5106 8.93699C14.0893 8.44705 14.8682 8.14752 15.7181 8.14752C16.5671 8.14752 17.3461 8.44705 17.9252 8.93699C18.5149 9.43583 18.906 10.1396 18.9512 10.9376C18.996 11.7583 18.6662 12.5208 18.0874 13.0859C17.4973 13.6608 16.658 14.0215 15.7181 14.0215C14.7783 14.0215 13.9372 13.6608 13.3476 13.0859C12.7685 12.5208 12.4394 11.7583 12.4846 10.9384Z" fill="#265787"/>
<path d="M7.35102 12.5794C7.35665 12.8925 7.45649 13.5013 7.6064 13.9766C7.9213 14.9828 8.45549 15.9138 9.19883 16.7341C9.96168 17.5774 10.901 18.2547 11.986 18.7356C13.1264 19.2406 14.362 19.4979 15.6455 19.4959C16.9268 19.4941 18.1626 19.2317 19.3029 18.7228C20.3879 18.2373 21.3263 17.557 22.088 16.7134C22.8308 15.8896 23.3642 14.9571 23.68 13.9508C23.8387 13.4424 23.9391 12.9264 23.9793 12.4087C24.0186 11.8979 24.002 11.3843 23.9298 10.8772C23.7884 9.88238 23.4441 8.949 22.9142 8.09813C22.4295 7.31625 21.8047 6.63178 21.0618 6.05559L21.0635 6.05438L13.5663 0.297658C13.5594 0.292595 13.5539 0.287158 13.5467 0.28247C13.0549 -0.0951548 12.2276 -0.0938423 11.6867 0.284533C11.1397 0.66722 11.0771 1.30013 11.5639 1.69922L11.5618 1.70138L14.6888 4.24425L5.15793 4.25438H5.14518C4.3574 4.25531 3.60018 4.77216 3.45018 5.42531C3.29615 6.09075 3.83127 6.64275 4.65036 6.64575L4.64905 6.64866L9.47999 6.63928L0.85949 13.2562C0.848521 13.2643 0.836615 13.2728 0.82649 13.2808C0.0133023 13.9035 -0.249573 14.939 0.262584 15.5942C0.782427 16.2606 1.88774 16.2618 2.70936 15.598L7.41411 11.7476C7.41411 11.7476 7.34549 12.2674 7.35102 12.5794ZM19.4406 14.3199C18.4712 15.3076 17.114 15.8676 15.6456 15.8706C14.1749 15.8731 12.8178 15.3181 11.8484 14.3322C11.3747 13.8518 11.0268 13.2989 10.8121 12.7101C10.601 12.1306 10.5198 11.5118 10.5742 10.8975C10.6254 10.2917 10.8058 9.71391 11.0936 9.19106C11.3764 8.67722 11.7658 8.21278 12.2467 7.81997C13.1889 7.05216 14.3886 6.63638 15.6433 6.63469C16.8994 6.633 18.0981 7.04494 19.0414 7.81031C19.5214 8.20134 19.9104 8.66409 20.1932 9.17719C20.4847 9.70281 20.6624 10.2839 20.7147 10.8827C20.7684 11.4966 20.6869 12.1149 20.4759 12.6939C20.2609 13.2846 19.9142 13.8374 19.4406 14.3199Z" fill="#EA7600"/>
</g>
<defs>
<clipPath id="clip0_143_54">
<rect width="24" height="19.5" fill="white"/>
</clipPath>
</defs>
</svg>
