<svg width="24" height="24" viewBox="0 0 24 24" fill="none" xmlns="http://www.w3.org/2000/svg">
<path d="M22 14H14V22H22V14ZM6.5 2L11 10H2L6.5 2ZM18 10C19.0609 10 20.0783 9.57857 20.8284 8.82843C21.5786 8.07828 22 7.06087 22 6C22 4.93913 21.5786 3.92172 20.8284 3.17157C20.0783 2.42143 19.0609 2 18 2C16.9391 2 15.9217 2.42143 15.1716 3.17157C14.4214 3.92172 14 4.93913 14 6C14 7.06087 14.4214 8.07828 15.1716 8.82843C15.9217 9.57857 16.9391 10 18 10Z" stroke="defaultColor" stroke-width="2" stroke-linejoin="round"/>
<path d="M2 14L10 22M10 14L2 22" stroke="defaultColor" stroke-width="2" stroke-linecap="round" stroke-linejoin="round"/>
</svg>
