<svg width="24" height="24" viewBox="0 0 24 24" fill="none" xmlns="http://www.w3.org/2000/svg">
<path d="M3 6.75C3 4.982 3 4.098 3.55 3.55C4.097 3 4.981 3 6.75 3C8.518 3 9.402 3 9.95 3.55C10.5 4.098 10.5 4.982 10.5 6.75C10.5 8.518 10.5 9.402 9.95 9.95C9.402 10.5 8.518 10.5 6.75 10.5C4.982 10.5 4.098 10.5 3.55 9.95C3 9.403 3 8.519 3 6.75ZM3 17.257C3 15.489 3 14.605 3.55 14.057C4.098 13.507 4.982 13.507 6.75 13.507C8.518 13.507 9.402 13.507 9.95 14.057C10.5 14.605 10.5 15.489 10.5 17.257C10.5 19.025 10.5 19.909 9.95 20.457C9.402 21.007 8.518 21.007 6.75 21.007C4.982 21.007 4.098 21.007 3.55 20.457C3 19.91 3 19.025 3 17.257ZM13.5 6.75C13.5 4.982 13.5 4.098 14.05 3.55C14.598 3 15.482 3 17.25 3C19.018 3 19.902 3 20.45 3.55C21 4.098 21 4.982 21 6.75C21 8.518 21 9.402 20.45 9.95C19.902 10.5 19.018 10.5 17.25 10.5C15.482 10.5 14.598 10.5 14.05 9.95C13.5 9.402 13.5 8.518 13.5 6.75ZM13.5 17.257C13.5 15.489 13.5 14.605 14.05 14.057C14.598 13.507 15.482 13.507 17.25 13.507C19.018 13.507 19.902 13.507 20.45 14.057C21 14.605 21 15.489 21 17.257C21 19.025 21 19.909 20.45 20.457C19.902 21.007 19.018 21.007 17.25 21.007C15.482 21.007 14.598 21.007 14.05 20.457C13.5 19.909 13.5 19.025 13.5 17.257Z" stroke="defaultColor" stroke-width="1.5" stroke-linecap="round" stroke-linejoin="round"/>
</svg>
