<svg width="40" height="40" viewBox="0 0 40 40" fill="none" xmlns="http://www.w3.org/2000/svg">
    <path
        d="M33.333 6.66666H6.66634C4.83301 6.66666 3.34967 8.16666 3.34967 10L3.33301 30C3.33301 31.8333 4.83301 33.3333 6.66634 33.3333H33.333C35.1663 33.3333 36.6663 31.8333 36.6663 30V10C36.6663 8.16666 35.1663 6.66666 33.333 6.66666ZM32.6663 13.75L20.883 21.1167C20.3497 21.45 19.6497 21.45 19.1163 21.1167L7.33301 13.75C7.16589 13.6562 7.01954 13.5294 6.90282 13.3774C6.7861 13.2254 6.70144 13.0513 6.65397 12.8656C6.60649 12.6799 6.59718 12.4866 6.6266 12.2972C6.65602 12.1078 6.72357 11.9264 6.82514 11.7638C6.92672 11.6013 7.06021 11.4611 7.21755 11.3517C7.37489 11.2422 7.55279 11.1658 7.7405 11.1272C7.92821 11.0885 8.12181 11.0883 8.3096 11.1266C8.49739 11.1649 8.67545 11.2409 8.83301 11.35L19.9997 18.3333L31.1663 11.35C31.3239 11.2409 31.502 11.1649 31.6898 11.1266C31.8775 11.0883 32.0711 11.0885 32.2588 11.1272C32.4466 11.1658 32.6245 11.2422 32.7818 11.3517C32.9391 11.4611 33.0726 11.6013 33.1742 11.7638C33.2758 11.9264 33.3433 12.1078 33.3727 12.2972C33.4022 12.4866 33.3929 12.6799 33.3454 12.8656C33.2979 13.0513 33.2132 13.2254 33.0965 13.3774C32.9798 13.5294 32.8335 13.6562 32.6663 13.75Z"
        fill="black" />
</svg>
    