<svg width="40" height="40" viewBox="0 0 40 40" fill="none" xmlns="http://www.w3.org/2000/svg">
    <path
        d="M19.9997 3.33334C17.811 3.33334 15.6437 3.76443 13.6216 4.60201C11.5995 5.43959 9.7622 6.66725 8.21456 8.21489C5.08896 11.3405 3.33301 15.5797 3.33301 20C3.33301 27.3667 8.11634 33.6167 14.733 35.8333C15.5663 35.9667 15.833 35.45 15.833 35V32.1833C11.2163 33.1833 10.233 29.95 10.233 29.95C9.46634 28.0167 8.38301 27.5 8.38301 27.5C6.86634 26.4667 8.49967 26.5 8.49967 26.5C10.1663 26.6167 11.0497 28.2167 11.0497 28.2167C12.4997 30.75 14.9497 30 15.8997 29.6C16.0497 28.5167 16.483 27.7833 16.9497 27.3667C13.2497 26.95 9.36634 25.5167 9.36634 19.1667C9.36634 17.3167 9.99967 15.8333 11.083 14.65C10.9163 14.2333 10.333 12.5 11.2497 10.25C11.2497 10.25 12.6497 9.8 15.833 11.95C17.1497 11.5833 18.583 11.4 19.9997 11.4C21.4163 11.4 22.8497 11.5833 24.1663 11.95C27.3497 9.8 28.7497 10.25 28.7497 10.25C29.6663 12.5 29.083 14.2333 28.9163 14.65C29.9997 15.8333 30.633 17.3167 30.633 19.1667C30.633 25.5333 26.733 26.9333 23.0163 27.35C23.6163 27.8667 24.1663 28.8833 24.1663 30.4333V35C24.1663 35.45 24.433 35.9833 25.283 35.8333C31.8997 33.6 36.6663 27.3667 36.6663 20C36.6663 17.8113 36.2352 15.644 35.3977 13.6219C34.5601 11.5999 33.3324 9.76253 31.7848 8.21489C30.2371 6.66725 28.3998 5.43959 26.3777 4.60201C24.3556 3.76443 22.1884 3.33334 19.9997 3.33334Z"
        fill="black" />
</svg>
    